<svg width="1200" height="630" viewBox="0 0 1200 630" fill="none" xmlns="http://www.w3.org/2000/svg">
  <rect width="1200" height="630" fill="#0E1A23"/>
  <circle cx="1040" cy="110" r="250" fill="#0F6B75" opacity="0.16"/>
  <circle cx="180" cy="560" r="280" fill="#FF8A2B" opacity="0.10"/>
  <g transform="translate(120 145)">
    <path d="M250 49C204 7 135 -11 66 8C-27 33 -90 120 -78 216C-66 319 22 391 122 384C190 380 248 341 280 284" stroke="url(#teal)" stroke-width="42" stroke-linecap="round" transform="translate(90 0)"/>
    <circle cx="256" cy="130" r="38" fill="#F2F5F7"/>
    <path d="M187 204C220 169 292 169 325 204" stroke="#F2F5F7" stroke-width="26" stroke-linecap="round"/>
    <path d="M179 266C222 242 292 242 335 266" stroke="#FF8A2B" stroke-width="16" stroke-linecap="round"/>
    <path d="M185 300C226 276 288 276 329 300" stroke="#FF8A2B" stroke-width="16" stroke-linecap="round"/>
  </g>
  <g transform="translate(490 185)">
    <text x="0" y="58" fill="#F2F5F7" font-family="Inter, Arial, sans-serif" font-size="64" font-weight="800">Adaptive</text>
    <text x="0" y="134" fill="#F2F5F7" font-family="Inter, Arial, sans-serif" font-size="64" font-weight="800">Climate</text>
    <text x="0" y="210" fill="#F2F5F7" font-family="Inter, Arial, sans-serif" font-size="64" font-weight="800">Engine</text>
    <text x="0" y="282" fill="#63B7AE" font-family="Inter, Arial, sans-serif" font-size="23" font-weight="700" letter-spacing="6">PERSONAL COMFORT. SMARTER BUILDINGS.</text>
  </g>
  <defs>
    <linearGradient id="teal" x1="10" y1="190" x2="390" y2="190" gradientUnits="userSpaceOnUse">
      <stop stop-color="#0F6B75"/>
      <stop offset="0.5" stop-color="#63B7AE"/>
      <stop offset="1" stop-color="#0F6B75"/>
    </linearGradient>
  </defs>
</svg>
