<svg xmlns="http://www.w3.org/2000/svg" viewBox="0 0 1200 630" role="img" aria-label="Adaptive Climate Engine social preview"><defs><linearGradient id="g" x1="0" x2="1" y1="0" y2="1"><stop offset="0" stop-color="#0D5160"/><stop offset="0.55" stop-color="#0FA3B1"/><stop offset="1" stop-color="#6CCAD3"/></linearGradient><radialGradient id="bg" cx="70%" cy="20%" r="80%"><stop offset="0" stop-color="#123845"/><stop offset="1" stop-color="#0D1B24"/></radialGradient><filter id="s" x="-20%" y="-20%" width="140%" height="140%"><feDropShadow dx="0" dy="16" stdDeviation="18" flood-color="#000" flood-opacity="0.32"/></filter></defs><rect width="1200" height="630" fill="url(#bg)"/><circle cx="1010" cy="90" r="260" fill="#0FA3B1" opacity="0.12"/><circle cx="170" cy="575" r="300" fill="#FF8A19" opacity="0.08"/><g transform="translate(145 190) scale(1.32)" filter="url(#s)"><path d="M78 136 C52 138 34 118 44 94 L82 18 C94 -5 130 -4 143 19 L186 103 L151 103 L113 33 C109 25 100 25 96 33 L62 97 C57 107 64 117 75 115 L160 100 C182 96 198 117 186 137 C160 169 99 174 55 148 C75 153 125 154 152 133 Z" fill="url(#g)"/><path d="M111 121 C143 124 167 117 190 99 L190 136 C160 156 124 162 87 153 C65 148 49 138 39 126 C58 134 83 139 111 121 Z" fill="#0D5160" opacity="0.95"/><path d="M163 139 C189 141 214 147 238 158 C203 154 174 161 146 174 C157 160 162 149 163 139 Z" fill="#6CCAD3"/><circle cx="111" cy="86" r="18" fill="#FF8A19"/></g><g transform="translate(480 218)"><text x="0" y="60" font-family="Satoshi, Sora, Inter, Arial, sans-serif" font-size="72" font-weight="800" fill="#FFFFFF">Adaptive</text><text x="0" y="136" font-family="Satoshi, Sora, Inter, Arial, sans-serif" font-size="72" font-weight="800" fill="#0FA3B1">Climate Engine</text><rect x="0" y="172" width="48" height="6" rx="3" fill="#FF8A19"/><text x="0" y="218" font-family="Satoshi, Sora, Inter, Arial, sans-serif" font-size="24" font-weight="700" letter-spacing="4" fill="#FFFFFF" opacity="0.88">COMFORT. FEEDBACK. INTELLIGENTLY ADAPTIVE.</text></g></svg>