<svg xmlns="http://www.w3.org/2000/svg" viewBox="0 0 280 280" role="img" aria-label="Adaptive Climate Engine icon"><defs><linearGradient id="g" x1="0" x2="1" y1="0" y2="1"><stop offset="0" stop-color="#0D5160"/><stop offset="0.55" stop-color="#0FA3B1"/><stop offset="1" stop-color="#6CCAD3"/></linearGradient><filter id="s" x="-20%" y="-20%" width="140%" height="140%"><feDropShadow dx="0" dy="9" stdDeviation="9" flood-color="#0D1B24" flood-opacity="0.18"/></filter></defs><rect width="280" height="280" fill="none"/><g transform="translate(28 28)" filter="url(#s)"><path d="M86 174 C55 176 33 152 45 123 L91 32 C106 4 149 5 164 33 L216 135 L176 135 L131 50 C126 40 115 40 110 50 L69 127 C63 140 72 151 85 149 L187 130 C214 125 234 151 218 176 C187 215 114 222 62 190 C85 196 145 198 178 171 Z" fill="url(#g)"/><path d="M125 155 C164 158 194 149 222 127 L222 173 C186 197 143 205 99 194 C73 188 54 176 42 162 C65 172 95 178 125 155 Z" fill="#0D5160" opacity="0.94"/><path d="M187 177 C218 180 247 187 276 200 C235 196 199 205 166 220 C179 204 186 190 187 177 Z" fill="#6CCAD3"/><circle cx="125" cy="111" r="22" fill="#FF8A19"/></g></svg>