<svg xmlns="http://www.w3.org/2000/svg" viewBox="0 0 512 512" role="img" aria-label="Adaptive Climate Engine app icon"><defs><linearGradient id="g" x1="0" x2="1" y1="0" y2="1"><stop offset="0" stop-color="#0D5160"/><stop offset="0.55" stop-color="#0FA3B1"/><stop offset="1" stop-color="#6CCAD3"/></linearGradient><filter id="s" x="-20%" y="-20%" width="140%" height="140%"><feDropShadow dx="0" dy="12" stdDeviation="12" flood-color="#0D1B24" flood-opacity="0.2"/></filter></defs><rect x="34" y="34" width="444" height="444" rx="86" fill="#F7F9FA"/><rect x="34" y="34" width="444" height="444" rx="86" fill="none" stroke="#E6EAEE" stroke-width="4"/><g transform="translate(94 94)" filter="url(#s)"><path d="M124 250 C79 253 48 218 65 176 L132 46 C153 6 215 7 237 48 L313 194 L255 194 L190 72 C183 58 167 58 160 72 L100 182 C91 201 104 217 123 214 L270 187 C309 180 338 217 315 253 C270 310 165 319 90 273 C123 282 209 284 256 245 Z" fill="url(#g)"/><path d="M180 223 C236 228 279 214 320 182 L320 248 C268 283 206 294 142 278 C105 270 78 253 61 233 C94 248 137 256 180 223 Z" fill="#0D5160" opacity="0.94"/><path d="M270 255 C315 259 356 269 398 288 C338 282 287 295 239 317 C258 294 268 274 270 255 Z" fill="#6CCAD3"/><circle cx="180" cy="160" r="32" fill="#FF8A19"/></g></svg>