<svg width="940" height="180" viewBox="0 0 940 180" fill="none" xmlns="http://www.w3.org/2000/svg">
  <g transform="translate(8 10) scale(0.31)">
    <path d="M371 137C336 105 283 91 231 105C160 124 112 190 121 263C130 341 197 396 273 391C325 388 369 358 393 315" stroke="url(#teal)" stroke-width="34" stroke-linecap="round"/>
    <circle cx="256" cy="184" r="34" fill="#0B4851"/>
    <path d="M190 250C218 220 294 220 322 250" stroke="url(#teal2)" stroke-width="24" stroke-linecap="round"/>
    <path d="M175 302C218 278 294 278 337 302" stroke="#FF8A2B" stroke-width="16" stroke-linecap="round"/>
    <path d="M179 333C222 309 290 309 333 333" stroke="#FF8A2B" stroke-width="16" stroke-linecap="round"/>
  </g>
  <text x="175" y="105" fill="#0E1A23" font-family="Sora, Inter, Arial, sans-serif" font-size="58" font-weight="700" letter-spacing="-2.2">Adaptive Climate Engine</text>
  <defs>
    <linearGradient id="teal" x1="112" y1="256" x2="404" y2="256" gradientUnits="userSpaceOnUse">
      <stop stop-color="#0F6B75"/>
      <stop offset="0.55" stop-color="#63B7AE"/>
      <stop offset="1" stop-color="#0F6B75"/>
    </linearGradient>
    <linearGradient id="teal2" x1="190" y1="236" x2="322" y2="236" gradientUnits="userSpaceOnUse">
      <stop stop-color="#0F6B75"/>
      <stop offset="1" stop-color="#63B7AE"/>
    </linearGradient>
  </defs>
</svg>
